<?xml version="1.0" encoding="UTF-8" standalone="no"?>
<!-- Created with Inkscape (http://www.inkscape.org/) -->

<svg
   xmlns:dc="http://purl.org/dc/elements/1.1/"
   xmlns:cc="http://creativecommons.org/ns#"
   xmlns:rdf="http://www.w3.org/1999/02/22-rdf-syntax-ns#"
   xmlns:svg="http://www.w3.org/2000/svg"
   xmlns="http://www.w3.org/2000/svg"
   xmlns:sodipodi="http://sodipodi.sourceforge.net/DTD/sodipodi-0.dtd"
   xmlns:inkscape="http://www.inkscape.org/namespaces/inkscape"
   width="153.27435mm"
   height="125.59774mm"
   viewBox="0 0 153.27435 125.59774"
   version="1.1"
   id="svg8"
   inkscape:version="0.92.3 (2405546, 2018-03-11)"
   sodipodi:docname="hero-img.svg">
  <defs
     id="defs2">
    <clipPath
       id="clipPath833"
       clipPathUnits="userSpaceOnUse">
      <path
         inkscape:connector-curvature="0"
         id="path831"
         d="M 0,500 H 500 V 0 H 0 Z" />
    </clipPath>
    <clipPath
       id="clipPath967"
       clipPathUnits="userSpaceOnUse">
      <path
         inkscape:connector-curvature="0"
         id="path965"
         d="M 290.847,404.772 H 417.793 V 360.406 H 290.847 Z" />
    </clipPath>
    <clipPath
       id="clipPath981"
       clipPathUnits="userSpaceOnUse">
      <path
         inkscape:connector-curvature="0"
         id="path979"
         d="M 290.847,348.387 H 417.793 V 330.406 H 290.847 Z" />
    </clipPath>
    <clipPath
       id="clipPath995"
       clipPathUnits="userSpaceOnUse">
      <path
         inkscape:connector-curvature="0"
         id="path993"
         d="m 290.847,404.772 h 92.169 V 216.749 h -92.169 z" />
    </clipPath>
    <clipPath
       id="clipPath1011"
       clipPathUnits="userSpaceOnUse">
      <path
         inkscape:connector-curvature="0"
         id="path1009"
         d="m 365.516,404.772 h 39.5 V 216.749 h -39.5 z" />
    </clipPath>
    <clipPath
       id="clipPath1177"
       clipPathUnits="userSpaceOnUse">
      <path
         inkscape:connector-curvature="0"
         id="path1175"
         d="M 107.738,285.601 H 296.601 V 176.172 H 107.738 Z" />
    </clipPath>
    <clipPath
       id="clipPath1255"
       clipPathUnits="userSpaceOnUse">
      <path
         inkscape:connector-curvature="0"
         id="path1253"
         d="M 0,500 H 500 V 0 H 0 Z" />
    </clipPath>
    <clipPath
       id="clipPath1273"
       clipPathUnits="userSpaceOnUse">
      <path
         inkscape:connector-curvature="0"
         id="path1271"
         d="M 0,500 H 500 V 0 H 0 Z" />
    </clipPath>
    <clipPath
       id="clipPath1291"
       clipPathUnits="userSpaceOnUse">
      <path
         inkscape:connector-curvature="0"
         id="path1289"
         d="M 0,500 H 500 V 0 H 0 Z" />
    </clipPath>
    <clipPath
       id="clipPath1303"
       clipPathUnits="userSpaceOnUse">
      <path
         inkscape:connector-curvature="0"
         id="path1301"
         d="M 0,500 H 500 V 0 H 0 Z" />
    </clipPath>
  </defs>
  <sodipodi:namedview
     id="base"
     pagecolor="#ffffff"
     bordercolor="#666666"
     borderopacity="1.0"
     inkscape:pageopacity="0.0"
     inkscape:pageshadow="2"
     inkscape:zoom="0.98994949"
     inkscape:cx="273.38112"
     inkscape:cy="249.00431"
     inkscape:document-units="mm"
     inkscape:current-layer="g823"
     showgrid="false"
     fit-margin-top="0"
     fit-margin-left="0"
     fit-margin-right="0"
     fit-margin-bottom="0"
     inkscape:window-width="1920"
     inkscape:window-height="993"
     inkscape:window-x="-10"
     inkscape:window-y="-10"
     inkscape:window-maximized="1" />
  <metadata
     id="metadata5">
    <rdf:RDF>
      <cc:Work
         rdf:about="">
        <dc:format>image/svg+xml</dc:format>
        <dc:type
           rdf:resource="http://purl.org/dc/dcmitype/StillImage" />
        <dc:title></dc:title>
      </cc:Work>
    </rdf:RDF>
  </metadata>
  <g
     inkscape:label="Camada 1"
     inkscape:groupmode="layer"
     id="layer1"
     transform="translate(-31.288961,-84.655692)">
    <g
       transform="matrix(0.35277777,0,0,-0.35277777,19.150795,230.98015)"
       inkscape:label="492471-PH9TLV-469"
       id="g823">
      <g
         id="g827">
        <g
           clip-path="url(#clipPath833)"
           id="g829">
          <g
             transform="translate(323.3086,58.7529)"
             id="g835">
            <path
               inkscape:connector-curvature="0"
               id="path837"
               style="fill:#7f82db;fill-opacity:1;fill-rule:nonzero;stroke:none"
               d="m 0,0 h -60.067 c -3.662,0 -6.631,2.969 -6.631,6.631 0,3.663 2.969,6.632 6.631,6.632 H 0 c 3.663,0 6.632,-2.969 6.632,-6.632 C 6.632,2.969 3.663,0 0,0" />
          </g>
          <g
             transform="translate(101.1064,108.4697)"
             id="g839">
            <path
               inkscape:connector-curvature="0"
               id="path841"
               style="fill:#7f82db;fill-opacity:1;fill-rule:nonzero;stroke:none"
               d="m 0,0 h -60.068 c -3.662,0 -6.631,2.969 -6.631,6.632 0,3.662 2.969,6.631 6.631,6.631 H 0 c 3.662,0 6.631,-2.969 6.631,-6.631 C 6.631,2.969 3.662,0 0,0" />
          </g>
          <g
             transform="translate(89.895,58.7529)"
             id="g843">
            <path
               inkscape:connector-curvature="0"
               id="path845"
               style="fill:#7f82db;fill-opacity:1;fill-rule:nonzero;stroke:none"
               d="m 0,0 h -24.688 c -3.663,0 -6.631,2.969 -6.631,6.631 0,3.663 2.968,6.632 6.631,6.632 H 0 c 3.663,0 6.631,-2.969 6.631,-6.632 C 6.631,2.969 3.663,0 0,0" />
          </g>
          <g
             transform="translate(116.3818,58.7529)"
             id="g847">
            <path
               inkscape:connector-curvature="0"
               id="path849"
               style="fill:#7f82db;fill-opacity:1;fill-rule:nonzero;stroke:none"
               d="m 0,0 h -9.029 c -3.662,0 -6.631,2.969 -6.631,6.631 0,3.663 2.969,6.632 6.631,6.632 H 0 c 3.662,0 6.631,-2.969 6.631,-6.632 C 6.631,2.969 3.662,0 0,0" />
          </g>
          <g
             transform="translate(360.1602,65.3838)"
             id="g851">
            <path
               inkscape:connector-curvature="0"
               id="path853"
               style="fill:none;stroke:#24116b;stroke-width:1;stroke-linecap:butt;stroke-linejoin:miter;stroke-miterlimit:10;stroke-dasharray:none;stroke-opacity:1"
               d="m 0,0 h -315.981 l 39.263,89.244 h 237.454 z" />
          </g>
          <g
             transform="translate(439.4795,175.8984)"
             id="g855">
            <path
               inkscape:connector-curvature="0"
               id="path857"
               style="fill:#7f82db;fill-opacity:1;fill-rule:nonzero;stroke:none"
               d="m 0,0 h -171.079 c -7.044,0 -12.754,5.71 -12.754,12.754 0,7.043 5.71,12.753 12.754,12.753 L 0,25.507 c 7.044,0 12.753,-5.71 12.753,-12.753 C 12.753,5.71 7.044,0 0,0" />
          </g>
          <path
             inkscape:connector-curvature="0"
             id="path859"
             style="fill:#a2a3db;fill-opacity:1;fill-rule:nonzero;stroke:none"
             d="M 427.799,206.743 H 280.841 v -17.837 h 146.958 z" />
          <path
             inkscape:connector-curvature="0"
             id="path861"
             style="fill:#bdbefe;fill-opacity:1;fill-rule:nonzero;stroke:none"
             d="M 427.799,206.743 H 280.841 v 208.035 h 146.958 z" />
          <path
             inkscape:connector-curvature="0"
             id="path863"
             style="fill:#352786;fill-opacity:1;fill-rule:nonzero;stroke:none"
             d="M 417.793,216.749 H 290.848 v 188.023 h 126.945 z" />
          <path
             inkscape:connector-curvature="0"
             id="path865"
             style="fill:#1ea5c9;fill-opacity:1;fill-rule:nonzero;stroke:none"
             d="m 345.297,379.998 h -38.551 v 5.183 h 38.551 z" />
          <path
             inkscape:connector-curvature="0"
             id="path867"
             style="fill:#1ea5c9;fill-opacity:1;fill-rule:nonzero;stroke:none"
             d="M 364.746,379.998 H 354.7 v 5.183 h 10.046 z" />
          <path
             inkscape:connector-curvature="0"
             id="path869"
             style="fill:#1ea5c9;fill-opacity:1;fill-rule:nonzero;stroke:none"
             d="m 383.32,379.998 h -10.047 v 5.183 h 10.047 z" />
          <path
             inkscape:connector-curvature="0"
             id="path871"
             style="fill:#1ea5c9;fill-opacity:1;fill-rule:nonzero;stroke:none"
             d="m 401.894,379.998 h -10.046 v 5.183 h 10.046 z" />
          <path
             inkscape:connector-curvature="0"
             id="path873"
             style="fill:#230a68;fill-opacity:1;fill-rule:nonzero;stroke:none"
             d="m 301.743,379.998 h -5.183 v 5.183 h 5.183 z" />
          <path
             inkscape:connector-curvature="0"
             id="path875"
             style="fill:#230a68;fill-opacity:1;fill-rule:nonzero;stroke:none"
             d="m 412.079,379.998 h -5.183 v 5.183 h 5.183 z" />
          <path
             inkscape:connector-curvature="0"
             id="path877"
             style="fill:#1ea5c9;fill-opacity:1;fill-rule:nonzero;stroke:none"
             d="m 345.297,294.45 h -38.551 v 5.183 h 38.551 z" />
          <path
             inkscape:connector-curvature="0"
             id="path879"
             style="fill:#1ea5c9;fill-opacity:1;fill-rule:nonzero;stroke:none"
             d="M 364.746,294.45 H 354.7 v 5.183 h 10.046 z" />
          <path
             inkscape:connector-curvature="0"
             id="path881"
             style="fill:#1ea5c9;fill-opacity:1;fill-rule:nonzero;stroke:none"
             d="m 383.32,294.45 h -10.047 v 5.183 h 10.047 z" />
          <path
             inkscape:connector-curvature="0"
             id="path883"
             style="fill:#1ea5c9;fill-opacity:1;fill-rule:nonzero;stroke:none"
             d="m 401.894,294.45 h -10.046 v 5.183 h 10.046 z" />
          <path
             inkscape:connector-curvature="0"
             id="path885"
             style="fill:#230a68;fill-opacity:1;fill-rule:nonzero;stroke:none"
             d="m 301.743,294.45 h -5.183 v 5.183 h 5.183 z" />
          <path
             inkscape:connector-curvature="0"
             id="path887"
             style="fill:#230a68;fill-opacity:1;fill-rule:nonzero;stroke:none"
             d="m 412.079,294.45 h -5.183 v 5.183 h 5.183 z" />
          <path
             inkscape:connector-curvature="0"
             id="path889"
             style="fill:#1ea5c9;fill-opacity:1;fill-rule:nonzero;stroke:none"
             d="m 326.021,358.045 h -19.275 v 5.183 h 19.275 z" />
          <path
             inkscape:connector-curvature="0"
             id="path891"
             style="fill:#1ea5c9;fill-opacity:1;fill-rule:nonzero;stroke:none"
             d="m 364.746,358.045 h -32.533 v 5.183 h 32.533 z" />
          <path
             inkscape:connector-curvature="0"
             id="path893"
             style="fill:#1ea5c9;fill-opacity:1;fill-rule:nonzero;stroke:none"
             d="m 383.32,358.045 h -10.047 v 5.183 h 10.047 z" />
          <path
             inkscape:connector-curvature="0"
             id="path895"
             style="fill:#1ea5c9;fill-opacity:1;fill-rule:nonzero;stroke:none"
             d="m 401.894,358.045 h -10.046 v 5.183 h 10.046 z" />
          <path
             inkscape:connector-curvature="0"
             id="path897"
             style="fill:#230a68;fill-opacity:1;fill-rule:nonzero;stroke:none"
             d="m 301.743,358.045 h -5.183 v 5.183 h 5.183 z" />
          <path
             inkscape:connector-curvature="0"
             id="path899"
             style="fill:#230a68;fill-opacity:1;fill-rule:nonzero;stroke:none"
             d="m 412.079,358.045 h -5.183 v 5.183 h 5.183 z" />
          <path
             inkscape:connector-curvature="0"
             id="path901"
             style="fill:#1ea5c9;fill-opacity:1;fill-rule:nonzero;stroke:none"
             d="m 326.021,234.126 h -19.275 v 5.183 h 19.275 z" />
          <path
             inkscape:connector-curvature="0"
             id="path903"
             style="fill:#1ea5c9;fill-opacity:1;fill-rule:nonzero;stroke:none"
             d="m 364.746,234.126 h -32.533 v 5.183 h 32.533 z" />
          <path
             inkscape:connector-curvature="0"
             id="path905"
             style="fill:#1ea5c9;fill-opacity:1;fill-rule:nonzero;stroke:none"
             d="m 383.32,234.126 h -10.047 v 5.183 h 10.047 z" />
          <path
             inkscape:connector-curvature="0"
             id="path907"
             style="fill:#1ea5c9;fill-opacity:1;fill-rule:nonzero;stroke:none"
             d="m 401.894,234.126 h -10.046 v 5.183 h 10.046 z" />
          <path
             inkscape:connector-curvature="0"
             id="path909"
             style="fill:#230a68;fill-opacity:1;fill-rule:nonzero;stroke:none"
             d="m 301.743,234.126 h -5.183 v 5.183 h 5.183 z" />
          <path
             inkscape:connector-curvature="0"
             id="path911"
             style="fill:#230a68;fill-opacity:1;fill-rule:nonzero;stroke:none"
             d="m 412.079,234.126 h -5.183 v 5.183 h 5.183 z" />
          <path
             inkscape:connector-curvature="0"
             id="path913"
             style="fill:#1ea5c9;fill-opacity:1;fill-rule:nonzero;stroke:none"
             d="m 326.021,274.947 h -19.275 v 5.183 h 19.275 z" />
          <path
             inkscape:connector-curvature="0"
             id="path915"
             style="fill:#1ea5c9;fill-opacity:1;fill-rule:nonzero;stroke:none"
             d="m 364.746,274.947 h -32.533 v 5.183 h 32.533 z" />
          <path
             inkscape:connector-curvature="0"
             id="path917"
             style="fill:#1ea5c9;fill-opacity:1;fill-rule:nonzero;stroke:none"
             d="m 383.32,274.947 h -10.047 v 5.183 h 10.047 z" />
          <path
             inkscape:connector-curvature="0"
             id="path919"
             style="fill:#1ea5c9;fill-opacity:1;fill-rule:nonzero;stroke:none"
             d="m 401.894,274.947 h -10.046 v 5.183 h 10.046 z" />
          <path
             inkscape:connector-curvature="0"
             id="path921"
             style="fill:#230a68;fill-opacity:1;fill-rule:nonzero;stroke:none"
             d="m 301.743,274.947 h -5.183 v 5.183 h 5.183 z" />
          <path
             inkscape:connector-curvature="0"
             id="path923"
             style="fill:#230a68;fill-opacity:1;fill-rule:nonzero;stroke:none"
             d="m 412.079,274.947 h -5.183 v 5.183 h 5.183 z" />
          <path
             inkscape:connector-curvature="0"
             id="path925"
             style="fill:#1ea5c9;fill-opacity:1;fill-rule:nonzero;stroke:none"
             d="m 363.344,321.948 h 38.55 v -5.183 h -38.55 z" />
          <path
             inkscape:connector-curvature="0"
             id="path927"
             style="fill:#1ea5c9;fill-opacity:1;fill-rule:nonzero;stroke:none"
             d="m 343.894,321.948 h 10.046 v -5.183 h -10.046 z" />
          <path
             inkscape:connector-curvature="0"
             id="path929"
             style="fill:#1ea5c9;fill-opacity:1;fill-rule:nonzero;stroke:none"
             d="m 325.32,321.948 h 10.046 v -5.183 H 325.32 Z" />
          <path
             inkscape:connector-curvature="0"
             id="path931"
             style="fill:#1ea5c9;fill-opacity:1;fill-rule:nonzero;stroke:none"
             d="m 306.746,321.948 h 10.047 v -5.183 h -10.047 z" />
          <path
             inkscape:connector-curvature="0"
             id="path933"
             style="fill:#230a68;fill-opacity:1;fill-rule:nonzero;stroke:none"
             d="m 406.896,321.948 h 5.183 v -5.183 h -5.183 z" />
          <path
             inkscape:connector-curvature="0"
             id="path935"
             style="fill:#230a68;fill-opacity:1;fill-rule:nonzero;stroke:none"
             d="m 296.561,321.948 h 5.183 v -5.183 h -5.183 z" />
          <path
             inkscape:connector-curvature="0"
             id="path937"
             style="fill:#1ea5c9;fill-opacity:1;fill-rule:nonzero;stroke:none"
             d="m 382.618,343.9 h 19.275 v -5.183 h -19.275 z" />
          <path
             inkscape:connector-curvature="0"
             id="path939"
             style="fill:#1ea5c9;fill-opacity:1;fill-rule:nonzero;stroke:none"
             d="m 343.894,343.9 h 32.534 v -5.183 h -32.534 z" />
          <path
             inkscape:connector-curvature="0"
             id="path941"
             style="fill:#1ea5c9;fill-opacity:1;fill-rule:nonzero;stroke:none"
             d="m 325.32,343.9 h 10.046 v -5.183 H 325.32 Z" />
          <path
             inkscape:connector-curvature="0"
             id="path943"
             style="fill:#1ea5c9;fill-opacity:1;fill-rule:nonzero;stroke:none"
             d="m 306.746,343.9 h 10.047 v -5.183 h -10.047 z" />
          <path
             inkscape:connector-curvature="0"
             id="path945"
             style="fill:#230a68;fill-opacity:1;fill-rule:nonzero;stroke:none"
             d="m 406.896,343.9 h 5.183 v -5.183 h -5.183 z" />
          <path
             inkscape:connector-curvature="0"
             id="path947"
             style="fill:#230a68;fill-opacity:1;fill-rule:nonzero;stroke:none"
             d="m 296.561,343.9 h 5.183 v -5.183 h -5.183 z" />
          <path
             inkscape:connector-curvature="0"
             id="path949"
             style="fill:#1ea5c9;fill-opacity:1;fill-rule:nonzero;stroke:none"
             d="m 382.618,257.967 h 19.275 v -5.183 h -19.275 z" />
          <path
             inkscape:connector-curvature="0"
             id="path951"
             style="fill:#1ea5c9;fill-opacity:1;fill-rule:nonzero;stroke:none"
             d="m 343.894,257.967 h 32.534 v -5.183 h -32.534 z" />
          <path
             inkscape:connector-curvature="0"
             id="path953"
             style="fill:#1ea5c9;fill-opacity:1;fill-rule:nonzero;stroke:none"
             d="m 325.32,257.967 h 10.046 v -5.183 H 325.32 Z" />
          <path
             inkscape:connector-curvature="0"
             id="path955"
             style="fill:#1ea5c9;fill-opacity:1;fill-rule:nonzero;stroke:none"
             d="m 306.746,257.967 h 10.047 v -5.183 h -10.047 z" />
          <path
             inkscape:connector-curvature="0"
             id="path957"
             style="fill:#230a68;fill-opacity:1;fill-rule:nonzero;stroke:none"
             d="m 406.896,257.967 h 5.183 v -5.183 h -5.183 z" />
          <path
             inkscape:connector-curvature="0"
             id="path959"
             style="fill:#230a68;fill-opacity:1;fill-rule:nonzero;stroke:none"
             d="m 296.561,257.967 h 5.183 v -5.183 h -5.183 z" />
          <g
             id="g961">
            <g
               id="g963" />
            <g
               id="g973">
              <g
                 style="opacity:0.05000311"
                 id="g971"
                 clip-path="url(#clipPath967)">
                <path
                   inkscape:connector-curvature="0"
                   id="path969"
                   style="fill:#f3f3f5;fill-opacity:1;fill-rule:nonzero;stroke:none"
                   d="M 417.793,360.406 H 290.848 v 44.366 h 126.945 z" />
              </g>
            </g>
          </g>
          <g
             id="g975">
            <g
               id="g977" />
            <g
               id="g987">
              <g
                 style="opacity:0.05000311"
                 id="g985"
                 clip-path="url(#clipPath981)">
                <path
                   inkscape:connector-curvature="0"
                   id="path983"
                   style="fill:#f3f3f5;fill-opacity:1;fill-rule:nonzero;stroke:none"
                   d="M 417.793,330.406 H 290.848 v 17.98 h 126.945 z" />
              </g>
            </g>
          </g>
          <g
             id="g989">
            <g
               id="g991" />
            <g
               id="g1003">
              <g
                 style="opacity:0.05000311"
                 id="g1001"
                 clip-path="url(#clipPath995)">
                <g
                   id="g999"
                   transform="translate(356.6201,216.749)">
                  <path
                     inkscape:connector-curvature="0"
                     id="path997"
                     style="fill:#f3f3f5;fill-opacity:1;fill-rule:nonzero;stroke:none"
                     d="M 0,0 H -65.772 V 188.023 H 26.396 Z" />
                </g>
              </g>
            </g>
          </g>
          <g
             id="g1005">
            <g
               id="g1007" />
            <g
               id="g1019">
              <g
                 style="opacity:0.05000311"
                 id="g1017"
                 clip-path="url(#clipPath1011)">
                <g
                   id="g1015"
                   transform="translate(378.6201,216.749)">
                  <path
                     inkscape:connector-curvature="0"
                     id="path1013"
                     style="fill:#f3f3f5;fill-opacity:1;fill-rule:nonzero;stroke:none"
                     d="M 0,0 H -13.104 L 13.291,188.023 H 26.396 Z" />
                </g>
              </g>
            </g>
          </g>
          <g
             transform="translate(409.4883,382.5889)"
             id="g1021">
            <path
               inkscape:connector-curvature="0"
               id="path1023"
               style="fill:none;stroke:#24116b;stroke-width:1;stroke-linecap:round;stroke-linejoin:round;stroke-miterlimit:10;stroke-dasharray:none;stroke-opacity:1"
               d="m 0,0 h -225.262 c -16.733,0 -30.298,-13.565 -30.298,-30.298 0,-16.733 -13.565,-30.298 -30.298,-30.298 h -15.2 c -16.734,0 -30.298,-13.565 -30.298,-30.298 V -240.03" />
          </g>
          <g
             transform="translate(413.0273,147.9971)"
             id="g1025">
            <path
               inkscape:connector-curvature="0"
               id="path1027"
               style="fill:#7f82db;fill-opacity:1;fill-rule:nonzero;stroke:none"
               d="m 0,0 h -37.834 c -3.663,0 -6.632,2.969 -6.632,6.631 0,3.663 2.969,6.632 6.632,6.632 H 0 c 3.662,0 6.631,-2.969 6.631,-6.632 C 6.631,2.969 3.662,0 0,0" />
          </g>
          <g
             transform="translate(462.2549,147.9971)"
             id="g1029">
            <path
               inkscape:connector-curvature="0"
               id="path1031"
               style="fill:#7f82db;fill-opacity:1;fill-rule:nonzero;stroke:none"
               d="m 0,0 h -20.044 c -3.662,0 -6.631,2.969 -6.631,6.631 0,3.663 2.969,6.632 6.631,6.632 H 0 c 3.662,0 6.631,-2.969 6.631,-6.632 C 6.631,2.969 3.662,0 0,0" />
          </g>
          <g
             transform="translate(462.125,76.3428)"
             id="g1033">
            <path
               inkscape:connector-curvature="0"
               id="path1035"
               style="fill:#7f82db;fill-opacity:1;fill-rule:nonzero;stroke:none"
               d="m 0,0 h -60.067 c -3.662,0 -6.631,2.969 -6.631,6.631 0,3.663 2.969,6.632 6.631,6.632 H 0 c 3.663,0 6.632,-2.969 6.632,-6.632 C 6.632,2.969 3.663,0 0,0" />
          </g>
          <g
             transform="translate(409.4883,341.3081)"
             id="g1037">
            <path
               inkscape:connector-curvature="0"
               id="path1039"
               style="fill:none;stroke:#24116b;stroke-width:1;stroke-linecap:round;stroke-linejoin:round;stroke-miterlimit:10;stroke-dasharray:none;stroke-opacity:1"
               d="m 0,0 h -300.625 c -26.361,0 -47.731,-21.37 -47.731,-47.731 v -150.394 c 0,-5.105 4.139,-9.245 9.245,-9.245 h 3.963" />
          </g>
          <g
             transform="translate(320.6279,135.0771)"
             id="g1041">
            <path
               inkscape:connector-curvature="0"
               id="path1043"
               style="fill:none;stroke:#24116b;stroke-width:1;stroke-linecap:round;stroke-linejoin:round;stroke-miterlimit:10;stroke-dasharray:none;stroke-opacity:1"
               d="m 0,0 h 96.104 c 8.874,0 16.067,7.194 16.067,16.067 0,8.873 -7.193,16.067 -16.067,16.067 H 30.643 c -8.408,0 -15.223,6.816 -15.223,15.223 0,8.408 6.815,15.223 15.223,15.223 h 31.04 c 15.009,0 27.177,12.168 27.177,27.178 v 30.54" />
          </g>
          <g
             transform="translate(409.4883,319.356)"
             id="g1045">
            <path
               inkscape:connector-curvature="0"
               id="path1047"
               style="fill:none;stroke:#24116b;stroke-width:1;stroke-linecap:round;stroke-linejoin:round;stroke-miterlimit:10;stroke-dasharray:none;stroke-opacity:1"
               d="m 0,0 v -140.804 c 0,-11.957 -9.693,-21.65 -21.649,-21.65 h -26.929 c -7.699,0 -13.941,-6.241 -13.941,-13.94 0,-7.698 6.242,-13.939 13.941,-13.939 h 59.883 c 2.764,0 5.006,-2.242 5.006,-5.005 0,-2.765 -2.242,-5.006 -7.854,-5.006 h -90.249" />
          </g>
          <g
             transform="translate(385.0967,312.9873)"
             id="g1049">
            <path
               inkscape:connector-curvature="0"
               id="path1051"
               style="fill:#aaabe6;fill-opacity:1;fill-rule:nonzero;stroke:none"
               d="m 0,0 h -54.864 c -8.449,0 -15.298,-6.849 -15.298,-15.297 v -74.835 h 34.947 c 11,0 19.917,8.917 19.917,19.917 v 54.918 C -15.298,-6.849 -8.449,0 0,0" />
          </g>
          <g
             transform="translate(336.0479,222.8555)"
             id="g1053">
            <path
               inkscape:connector-curvature="0"
               id="path1055"
               style="fill:#bdbefe;fill-opacity:1;fill-rule:nonzero;stroke:none"
               d="m 0,0 h -46.885 c -5.649,0 -10.228,4.579 -10.228,10.229 v 99.201 h 20.328 c 11.867,0 21.487,-9.62 21.487,-21.488 V 15.297 C -15.298,6.849 -8.449,0 0,0" />
          </g>
          <g
             transform="translate(307.2187,165.5537)"
             id="g1057">
            <path
               inkscape:connector-curvature="0"
               id="path1059"
               style="fill:#230a68;fill-opacity:1;fill-rule:nonzero;stroke:none"
               d="m 0,0 h -210.099 v 124.207 c 0,3.566 2.892,6.459 6.459,6.459 H -6.458 c 3.566,0 6.458,-2.893 6.458,-6.459 z" />
          </g>
          <g
             transform="translate(341.96,86.5908)"
             id="g1061">
            <path
               inkscape:connector-curvature="0"
               id="path1063"
               style="fill:#a7abf4;fill-opacity:1;fill-rule:nonzero;stroke:none"
               d="m 0,0 h -279.581 l 34.741,78.963 h 210.099 z" />
          </g>
          <g
             transform="translate(335.0332,79.3574)"
             id="g1065">
            <path
               inkscape:connector-curvature="0"
               id="path1067"
               style="fill:#352786;fill-opacity:1;fill-rule:nonzero;stroke:none"
               d="m 0,0 h -265.728 c -5.583,0 -8.666,3.278 -6.926,7.233 H 6.927 C 8.667,3.278 5.583,0 0,0" />
          </g>
          <g
             transform="translate(314.4434,106.4746)"
             id="g1069">
            <path
               inkscape:connector-curvature="0"
               id="path1071"
               style="fill:#8c8fec;fill-opacity:1;fill-rule:nonzero;stroke:none"
               d="m 0,0 h -224.548 l 19.5,51.731 H -19.5 Z" />
          </g>
          <g
             transform="translate(115.6147,143.9941)"
             id="g1073">
            <path
               inkscape:connector-curvature="0"
               id="path1075"
               style="fill:#24116b;fill-opacity:1;fill-rule:nonzero;stroke:none"
               d="m 0,0 h 14.065 l 2.226,7.992 H 2.657 Z" />
          </g>
          <g
             transform="translate(138.3354,143.9941)"
             id="g1077">
            <path
               inkscape:connector-curvature="0"
               id="path1079"
               style="fill:#24116b;fill-opacity:1;fill-rule:nonzero;stroke:none"
               d="m 0,0 h 14.065 l 1.528,7.992 H 1.96 Z" />
          </g>
          <g
             transform="translate(161.0557,143.9941)"
             id="g1081">
            <path
               inkscape:connector-curvature="0"
               id="path1083"
               style="fill:#24116b;fill-opacity:1;fill-rule:nonzero;stroke:none"
               d="m 0,0 h 14.065 l 0.831,7.992 H 1.263 Z" />
          </g>
          <g
             transform="translate(197.9746,151.9863)"
             id="g1085">
            <path
               inkscape:connector-curvature="0"
               id="path1087"
               style="fill:#24116b;fill-opacity:1;fill-rule:nonzero;stroke:none"
               d="m 0,0 h -13.633 l -0.565,-7.992 h 14.065 z" />
          </g>
          <g
             transform="translate(206.4971,143.9941)"
             id="g1089">
            <path
               inkscape:connector-curvature="0"
               id="path1091"
               style="fill:#24116b;fill-opacity:1;fill-rule:nonzero;stroke:none"
               d="M 0,0 H 14.065 L 13.5,7.992 H -0.133 Z" />
          </g>
          <g
             transform="translate(229.2178,143.9941)"
             id="g1093">
            <path
               inkscape:connector-curvature="0"
               id="path1095"
               style="fill:#24116b;fill-opacity:1;fill-rule:nonzero;stroke:none"
               d="M 0,0 H 14.065 L 12.803,7.992 H -0.83 Z" />
          </g>
          <g
             transform="translate(251.9385,143.9941)"
             id="g1097">
            <path
               inkscape:connector-curvature="0"
               id="path1099"
               style="fill:#24116b;fill-opacity:1;fill-rule:nonzero;stroke:none"
               d="m 0,0 h 14.065 l -1.96,7.992 H -1.528 Z" />
          </g>
          <g
             transform="translate(272.4336,151.9863)"
             id="g1101">
            <path
               inkscape:connector-curvature="0"
               id="path1103"
               style="fill:#24116b;fill-opacity:1;fill-rule:nonzero;stroke:none"
               d="M 0,0 2.226,-7.992 H 16.291 L 13.634,0 Z" />
          </g>
          <g
             transform="translate(111.064,130.3066)"
             id="g1105">
            <path
               inkscape:connector-curvature="0"
               id="path1107"
               style="fill:#24116b;fill-opacity:1;fill-rule:nonzero;stroke:none"
               d="m 0,0 h 14.805 l 2.462,8.842 H 2.939 Z" />
          </g>
          <g
             transform="translate(134.9795,130.3066)"
             id="g1109">
            <path
               inkscape:connector-curvature="0"
               id="path1111"
               style="fill:#24116b;fill-opacity:1;fill-rule:nonzero;stroke:none"
               d="m 0,0 h 14.804 l 1.691,8.842 H 2.168 Z" />
          </g>
          <g
             transform="translate(158.8945,130.3066)"
             id="g1113">
            <path
               inkscape:connector-curvature="0"
               id="path1115"
               style="fill:#24116b;fill-opacity:1;fill-rule:nonzero;stroke:none"
               d="m 0,0 h 14.805 l 0.918,8.842 H 1.396 Z" />
          </g>
          <g
             transform="translate(197.7612,139.1484)"
             id="g1117">
            <path
               inkscape:connector-curvature="0"
               id="path1119"
               style="fill:#24116b;fill-opacity:1;fill-rule:nonzero;stroke:none"
               d="m 0,0 h -14.327 l -0.625,-8.842 h 14.805 z" />
          </g>
          <g
             transform="translate(206.7246,130.3066)"
             id="g1121">
            <path
               inkscape:connector-curvature="0"
               id="path1123"
               style="fill:#24116b;fill-opacity:1;fill-rule:nonzero;stroke:none"
               d="M 0,0 H 14.805 L 14.18,8.842 H -0.147 Z" />
          </g>
          <g
             transform="translate(230.6401,130.3066)"
             id="g1125">
            <path
               inkscape:connector-curvature="0"
               id="path1127"
               style="fill:#24116b;fill-opacity:1;fill-rule:nonzero;stroke:none"
               d="M 0,0 H 14.805 L 13.408,8.842 H -0.919 Z" />
          </g>
          <g
             transform="translate(254.5547,130.3066)"
             id="g1129">
            <path
               inkscape:connector-curvature="0"
               id="path1131"
               style="fill:#24116b;fill-opacity:1;fill-rule:nonzero;stroke:none"
               d="M 0,0 H 14.805 L 12.637,8.842 H -1.689 Z" />
          </g>
          <g
             transform="translate(278.4697,130.3066)"
             id="g1133">
            <path
               inkscape:connector-curvature="0"
               id="path1135"
               style="fill:#24116b;fill-opacity:1;fill-rule:nonzero;stroke:none"
               d="m 0,0 h 14.806 l -2.94,8.842 H -2.461 Z" />
          </g>
          <g
             transform="translate(106.0083,115.1016)"
             id="g1137">
            <path
               inkscape:connector-curvature="0"
               id="path1139"
               style="fill:#24116b;fill-opacity:1;fill-rule:nonzero;stroke:none"
               d="m 0,0 h 15.626 l 2.738,9.831 H 3.269 Z" />
          </g>
          <g
             transform="translate(131.251,115.1016)"
             id="g1141">
            <path
               inkscape:connector-curvature="0"
               id="path1143"
               style="fill:#24116b;fill-opacity:1;fill-rule:nonzero;stroke:none"
               d="m 0,0 h 15.626 l 1.879,9.831 H 2.411 Z" />
          </g>
          <g
             transform="translate(156.4927,115.1016)"
             id="g1145">
            <path
               inkscape:connector-curvature="0"
               id="path1147"
               style="fill:#24116b;fill-opacity:1;fill-rule:nonzero;stroke:none"
               d="m 0,0 h 15.626 l 1.022,9.831 H 1.553 Z" />
          </g>
          <g
             transform="translate(182.4297,124.9326)"
             id="g1149">
            <path
               inkscape:connector-curvature="0"
               id="path1151"
               style="fill:#24116b;fill-opacity:1;fill-rule:nonzero;stroke:none"
               d="M 0,0 -0.694,-9.831 H 24.548 40.174 L 39.479,0 H 24.384 Z" />
          </g>
          <g
             transform="translate(232.2197,115.1016)"
             id="g1153">
            <path
               inkscape:connector-curvature="0"
               id="path1155"
               style="fill:#24116b;fill-opacity:1;fill-rule:nonzero;stroke:none"
               d="M 0,0 H 15.626 L 14.074,9.831 H -1.021 Z" />
          </g>
          <g
             transform="translate(257.4619,115.1016)"
             id="g1157">
            <path
               inkscape:connector-curvature="0"
               id="path1159"
               style="fill:#24116b;fill-opacity:1;fill-rule:nonzero;stroke:none"
               d="m 0,0 h 15.626 l -2.41,9.831 H -1.879 Z" />
          </g>
          <g
             transform="translate(282.7041,115.1016)"
             id="g1161">
            <path
               inkscape:connector-curvature="0"
               id="path1163"
               style="fill:#24116b;fill-opacity:1;fill-rule:nonzero;stroke:none"
               d="m 0,0 h 15.627 l -3.27,9.831 H -2.737 Z" />
          </g>
          <g
             transform="translate(241.4956,79.3574)"
             id="g1165">
            <path
               inkscape:connector-curvature="0"
               id="path1167"
               style="fill:#230a68;fill-opacity:1;fill-rule:nonzero;stroke:none"
               d="m 0,0 h -78.652 c -5.583,0 -9.611,3.278 -9.009,7.233 H 9.009 C 9.611,3.278 5.583,0 0,0" />
          </g>
          <path
             inkscape:connector-curvature="0"
             id="path1169"
             style="fill:#352786;fill-opacity:1;fill-rule:nonzero;stroke:none"
             d="M 296.602,176.172 H 107.738 v 109.43 h 188.864 z" />
          <g
             id="g1171">
            <g
               id="g1173" />
            <g
               id="g1185">
              <g
                 style="opacity:0.05000311"
                 id="g1183"
                 clip-path="url(#clipPath1177)">
                <g
                   id="g1181"
                   transform="translate(107.7378,285.6016)">
                  <path
                     inkscape:connector-curvature="0"
                     id="path1179"
                     style="fill:#f3f3f5;fill-opacity:1;fill-rule:nonzero;stroke:none"
                     d="M 0,0 H 188.864 L 0,-109.43 Z" />
                </g>
              </g>
            </g>
          </g>
          <g
             transform="translate(298.7627,332.2852)"
             id="g1187">
            <path
               inkscape:connector-curvature="0"
               id="path1189"
               style="fill:#a7a8e0;fill-opacity:1;fill-rule:nonzero;stroke:none"
               d="m 0,0 h -83.878 c -8.449,0 -15.298,-6.849 -15.298,-15.297 v -140.816 h 83.878 V -15.297 C -15.298,-6.849 -8.448,0 0,0" />
          </g>
          <path
             inkscape:connector-curvature="0"
             id="path1191"
             style="fill:#1ea5c9;fill-opacity:1;fill-rule:nonzero;stroke:none"
             d="m 221.232,299.971 h -10.651 v 4.39 h 10.651 z" />
          <path
             inkscape:connector-curvature="0"
             id="path1193"
             style="fill:#177e99;fill-opacity:1;fill-rule:nonzero;stroke:none"
             d="m 246.334,299.971 h -19.217 v 4.39 h 19.217 z" />
          <path
             inkscape:connector-curvature="0"
             id="path1195"
             style="fill:#ffffff;fill-opacity:1;fill-rule:nonzero;stroke:none"
             d="m 257.812,290.642 h -39.915 v 4.39 h 39.915 z" />
          <path
             inkscape:connector-curvature="0"
             id="path1197"
             style="fill:#1ea5c9;fill-opacity:1;fill-rule:nonzero;stroke:none"
             d="m 274.348,290.642 h -10.651 v 4.39 h 10.651 z" />
          <path
             inkscape:connector-curvature="0"
             id="path1199"
             style="fill:#ffffff;fill-opacity:1;fill-rule:nonzero;stroke:none"
             d="m 257.812,281.312 h -39.915 v 4.39 h 39.915 z" />
          <path
             inkscape:connector-curvature="0"
             id="path1201"
             style="fill:#1ea5c9;fill-opacity:1;fill-rule:nonzero;stroke:none"
             d="m 274.348,281.312 h -10.651 v 4.39 h 10.651 z" />
          <path
             inkscape:connector-curvature="0"
             id="path1203"
             style="fill:#ffffff;fill-opacity:1;fill-rule:nonzero;stroke:none"
             d="m 257.812,271.983 h -39.915 v 4.39 h 39.915 z" />
          <path
             inkscape:connector-curvature="0"
             id="path1205"
             style="fill:#1ea5c9;fill-opacity:1;fill-rule:nonzero;stroke:none"
             d="m 274.348,271.983 h -10.651 v 4.39 h 10.651 z" />
          <path
             inkscape:connector-curvature="0"
             id="path1207"
             style="fill:#1ea5c9;fill-opacity:1;fill-rule:nonzero;stroke:none"
             d="m 221.232,258.305 h -10.651 v 4.39 h 10.651 z" />
          <path
             inkscape:connector-curvature="0"
             id="path1209"
             style="fill:#177e99;fill-opacity:1;fill-rule:nonzero;stroke:none"
             d="m 246.334,258.305 h -19.217 v 4.39 h 19.217 z" />
          <path
             inkscape:connector-curvature="0"
             id="path1211"
             style="fill:#ffffff;fill-opacity:1;fill-rule:nonzero;stroke:none"
             d="m 257.812,248.976 h -39.915 v 4.39 h 39.915 z" />
          <path
             inkscape:connector-curvature="0"
             id="path1213"
             style="fill:#1ea5c9;fill-opacity:1;fill-rule:nonzero;stroke:none"
             d="m 274.348,248.976 h -10.651 v 4.39 h 10.651 z" />
          <path
             inkscape:connector-curvature="0"
             id="path1215"
             style="fill:#ffffff;fill-opacity:1;fill-rule:nonzero;stroke:none"
             d="m 257.812,239.646 h -39.915 v 4.391 h 39.915 z" />
          <path
             inkscape:connector-curvature="0"
             id="path1217"
             style="fill:#1ea5c9;fill-opacity:1;fill-rule:nonzero;stroke:none"
             d="m 274.348,239.646 h -10.651 v 4.391 h 10.651 z" />
          <path
             inkscape:connector-curvature="0"
             id="path1219"
             style="fill:#ffffff;fill-opacity:1;fill-rule:nonzero;stroke:none"
             d="m 257.812,230.317 h -39.915 v 4.391 h 39.915 z" />
          <path
             inkscape:connector-curvature="0"
             id="path1221"
             style="fill:#1ea5c9;fill-opacity:1;fill-rule:nonzero;stroke:none"
             d="m 274.348,230.317 h -10.651 v 4.391 h 10.651 z" />
          <path
             inkscape:connector-curvature="0"
             id="path1223"
             style="fill:#1ea5c9;fill-opacity:1;fill-rule:nonzero;stroke:none"
             d="m 221.232,216.639 h -10.651 v 4.391 h 10.651 z" />
          <path
             inkscape:connector-curvature="0"
             id="path1225"
             style="fill:#177e99;fill-opacity:1;fill-rule:nonzero;stroke:none"
             d="m 246.334,216.639 h -19.217 v 4.391 h 19.217 z" />
          <path
             inkscape:connector-curvature="0"
             id="path1227"
             style="fill:#ffffff;fill-opacity:1;fill-rule:nonzero;stroke:none"
             d="m 257.812,207.31 h -39.915 v 4.391 h 39.915 z" />
          <path
             inkscape:connector-curvature="0"
             id="path1229"
             style="fill:#1ea5c9;fill-opacity:1;fill-rule:nonzero;stroke:none"
             d="m 274.348,207.31 h -10.651 v 4.391 h 10.651 z" />
          <path
             inkscape:connector-curvature="0"
             id="path1231"
             style="fill:#ffffff;fill-opacity:1;fill-rule:nonzero;stroke:none"
             d="m 257.812,197.981 h -39.915 v 4.39 h 39.915 z" />
          <path
             inkscape:connector-curvature="0"
             id="path1233"
             style="fill:#1ea5c9;fill-opacity:1;fill-rule:nonzero;stroke:none"
             d="m 274.348,197.981 h -10.651 v 4.39 h 10.651 z" />
          <path
             inkscape:connector-curvature="0"
             id="path1235"
             style="fill:#ffffff;fill-opacity:1;fill-rule:nonzero;stroke:none"
             d="m 257.812,188.652 h -39.915 v 4.39 h 39.915 z" />
          <path
             inkscape:connector-curvature="0"
             id="path1237"
             style="fill:#1ea5c9;fill-opacity:1;fill-rule:nonzero;stroke:none"
             d="m 274.348,188.652 h -10.651 v 4.39 h 10.651 z" />
          <g
             transform="translate(277.2656,375.1377)"
             id="g1241">
            <path
               inkscape:connector-curvature="0"
               id="path1243"
               style="fill:#230a68;fill-opacity:1;fill-rule:nonzero;stroke:none"
               d="M 0,0 V -13.994 L -17.192,0 Z" />
          </g>
        </g>
      </g>
      <g
         id="g1249">
        <g
           clip-path="url(#clipPath1255)"
           id="g1251">
          <path
             inkscape:connector-curvature="0"
             id="path1257"
             style="fill:#1ea5c9;fill-opacity:1;fill-rule:nonzero;stroke:none"
             d="m 204.859,194.371 h -64.37 v 35.903 h 64.37 z" />
          <g
             transform="translate(158.667,198.0312)"
             id="g1259">
            <path
               inkscape:connector-curvature="0"
               id="path1261"
               style="fill:#1ea5c9;fill-opacity:1;fill-rule:nonzero;stroke:none"
               d="M 0,0 V -13.994 L 17.192,0 Z" />
          </g>
        </g>
      </g>
      <text
         id="text1265"
         style="font-variant:normal;font-weight:800;font-stretch:normal;font-size:23.23719978px;font-family:'Montserrat Extra Bold';-inkscape-font-specification:Montserrat-ExtraBold;writing-mode:lr-tb;fill:#ffffff;fill-opacity:1;fill-rule:nonzero;stroke:none"
         transform="matrix(1,0,0,-1,151.5376,204.1328)">
        <tspan
           id="tspan1263"
           sodipodi:role="line"
           y="0"
           x="0 11.967158 17.056105 25.514446 30.603392">&lt; / &gt;</tspan>
      </text>
      <g
         id="g1267">
        <g
           clip-path="url(#clipPath1273)"
           id="g1269">
          <g
             transform="translate(409.4883,360.4062)"
             id="g1275">
            <path
               inkscape:connector-curvature="0"
               id="path1277"
               style="fill:none;stroke:#24116b;stroke-width:1;stroke-linecap:round;stroke-linejoin:round;stroke-miterlimit:10;stroke-dasharray:none;stroke-opacity:1"
               d="m 0,0 h 32.179 v -235.878 c 0,-7.593 -6.156,-13.748 -13.748,-13.748 h -42.333 c -3.085,0 -5.586,-2.501 -5.586,-5.586 0,-3.085 2.501,-5.586 5.586,-5.586 h 62.096 c 4.594,0 8.318,-3.723 8.318,-8.317 0,-4.594 -3.724,-8.318 -8.318,-8.318 h -95.26" />
          </g>
        </g>
      </g>
    </g>
  </g>
</svg>
